<svg xmlns="http://www.w3.org/2000/svg" aria-hidden="true" style="position:absolute;width:0;height:0;overflow:hidden"><defs><symbol id="icon-antenna" viewBox="0 0 30 32"><path fill="#212121" d="m29.9 22-8.5-8.4 1-4.6.7.1a2.1 2.1 0 1 0-2-1.4l-5 .6-8-8.2-.4-.1-.4.1-1.5 1.5c-.2.3-.2.6 0 .8l.8.8a14.9 14.9 0 0 0 2.7 17.7v6.8H2.7A2.7 2.7 0 0 0 0 30.4v1c0 .3.3.6.6.6h24.5c.3 0 .5-.3.5-.6v-1c0-1.5-1.2-2.7-2.6-2.7h-6.4V25a14.6 14.6 0 0 0 10.1-1.5l.8.8.4.2c.2 0 .3 0 .3-.2l1.6-1.5c.2-.2.2-.5 0-.8zM22.4 6.3c.2-.2.4-.3.7-.3a1 1 0 0 1 0 2.1 1 1 0 0 1-.7-1.8zm-1.2 3.5-.6 3-1.2-1.2 1.8-1.8zm-.6-.9-2 2-1.5-1.6 3.5-.4zm2.5 20c.9 0 1.6.7 1.6 1.6v.5H1.2v-.5c0-1 .7-1.6 1.6-1.6h20.3zm-7.5-2.1v1h-5.3v-1h5.3zm-5.3-1.1v-4c0-1.3 1.2-2.4 2.6-2.4 1.5 0 2.7 1 2.7 2.3v4.1h-5.3zm6.4-1.7v-2.4c0-1.8-1.7-3.4-3.8-3.4-1.3 0-2.5.6-3.2 1.8a13.8 13.8 0 0 1-2.3-16L26 22.8a13.6 13.6 0 0 1-9.4 1.1zm11.3-.7-.8-.8L7.7 2.7l-.8-.6.7-.8 8 8 13.2 13.1-.8.8z" style="fill:var(--color1, #212121)"/><path fill="#2196f3" d="M13 20.3a1.6 1.6 0 1 0 0 3.2 1.6 1.6 0 1 0 0-3.2zm.3 2a.6.6 0 1 1-.4-1 .5.5 0 0 1 .4 1z" style="fill:var(--color2, #2196f3)"/></symbol><symbol id="icon-astronaut-img" viewBox="0 0 32 32"><path fill="#2196f3" d="M32 4.5c0-.2-.3-.3-.5-.3l-1.9-.3-.8-1.7c-.2-.4-.8-.4-1 0L27 3.9l-2 .3a.5.5 0 0 0-.2.9L26 6.4l-.3 2c0 .1 0 .3.2.4.2.2.4.2.6 0l1.7-.8 1.7.9a.5.5 0 0 0 .8-.6l-.3-1.9 1.3-1.3c.2-.2.2-.4.2-.6zM29.5 6c-.1 0-.2.2-.1.4l.1 1.1-1-.5a.5.5 0 0 0-.4 0l-1 .5.1-1-.1-.5-.8-.8 1.1-.2c.2 0 .3-.1.4-.3l.5-1 .5 1c0 .2.2.3.4.3l1.1.2-.8.8zM26.1 20.5h-1v1h1v-1zM26.1 22.7h-1v1h1v-1zM27.2 21.6h-1v1h1v-1zM25 21.6h-1v1h1v-1zM22.4 26.4h-1v1h1v-1zM22.4 28.5h-1v1h1v-1zM23.5 27.5h-1.1v1h1v-1zM21.3 27.5h-1v1h1v-1zM16 24.3h-1v1h1v-1zM16 26.4h-1v1h1v-1zM17 25.3h-1v1h1v-1zM15 25.3h-1.1v1h1v-1zM5.9 6.1H4.8v1h1v-1zM5.9 8.3H4.8v1h1v-1zM7 7.2H5.8v1h1v-1zM4.8 7.2h-1v1h1v-1z" style="fill:var(--color2, #2196f3)"/><path fill="#212121" d="M24.7 14.2c-.3-.4-.7-.7-1.2-.7-.5-.1-1 0-1.3.3l-1.3 1-1.9 1.4-1.3-.6a7 7 0 0 0-2.9-13.2A7 7 0 0 0 9 13H6l-3.2 1.6-2 1a1.8 1.8 0 0 0 1 3.2c.3 0 .6 0 .8-.2L4 18l2.3-1.2h1.3l-5.4 5.4-1.3 1.3a1.7 1.7 0 0 0 0 2.4 1.7 1.7 0 0 0 2.3 0l1.3-1.3 1.8-1.3.9.9-1.8 1.7-1.3 1.4a1.7 1.7 0 0 0 0 2.3 1.7 1.7 0 0 0 2.3 0l3.5-3.4 1-1 5.2-5.7 3.5.5h.2l.1-.1 3.3-2.1 1.3-1.3c.7-.6.8-1.6.2-2.3zM2.1 17.8h-.5a.7.7 0 0 1-.2-1.2l1.3-.7.4 1.3-1 .6zm3.5-1.9-1.5.8-.5-1.2 2-1v1.4zm15.1-6.6c0 1-.2 1.8-.6 2.6l-4.2-2c0-.5-.3-1-.7-1.3l1.4-4.9c2.4.8 4.1 3 4.1 5.6zM9 9.3a5.9 5.9 0 0 1 6.7-5.8L14 8.3a1.9 1.9 0 1 0 0 3.7c.7 0 1.3-.4 1.6-1l3.9 1.8A5.9 5.9 0 0 1 8.9 9.3zm6 .8a.8.8 0 0 1-1.6 0 .8.8 0 0 1 1.6 0zm-12.4 15c-.3.3-.7.3-.9 0a.6.6 0 0 1 0-.8l1-1 .8.9-1 1zM5.7 29c-.3.2-.6.2-.9 0a.6.6 0 0 1 0-.9l1-1 .8 1-1 .9zm3.5-3.5-1.8 1.8-.9-.9 1.8-1.7.1-.2v-.5h-.1l-1.6-1.7h-.1l-.1-.1H6l-1.8 1.4-.9-1 2.4-2.3 4.4 4.3-1 1zm6.8-7a.6.6 0 0 0-.4 0v.1l-4.8 5.2-4.3-4.2 2.8-2.9a.5.5 0 0 0-.4-.9H6.7v-1.6H10a7 7 0 0 0 6.2 2l.1.1 2.5 1 .1.7.2 1-3-.5zm4 .2-.3-1.6 1.5-1 .9 1.2-2 1.4zm3.8-2.9-.9.8-.9-1.2.8-.6c.2-.2.4-.2.6-.2a.7.7 0 0 1 .4 1.2z" style="fill:var(--color1, #212121)"/><path fill="#212121" d="m13.6 18.5-2.1-2a.5.5 0 0 0-.8 0l-2.1 2a.5.5 0 0 0 0 .8l2.1 2.1a.5.5 0 0 0 .8 0l2.1-2.1a.5.5 0 0 0 0-.8zm-2.5 1.8-1.4-1.4 1.4-1.4 1.4 1.4-1.4 1.4zM17.2 5l-.3 1.1s1.7.5 1.7 2.2h1.1c0-2-1.7-3-2.5-3.2zM19.7 9.3h-1v1h1v-1z" style="fill:var(--color1, #212121)"/></symbol><symbol id="icon-clock-img" viewBox="0 0 32 32"><path fill="#212121" d="M31.3 15.3a15.3 15.3 0 1 0-19.8 14.6h.4l.2-.4 4-12.3a2 2 0 1 0-1-3.6l-5-5.1a.6.6 0 0 0-1 .9l5.2 5c-.4.9-.2 1.8.5 2.4l-3.7 11.7a14 14 0 1 1 10.6-.4l-.4-1.9a.6.6 0 0 0-1-.3l-3.9 3.4a.6.6 0 0 0 .2 1.1l5 1.6a.6.6 0 0 0 .8-.8l-.4-1.8c5.6-2.4 9.3-8 9.3-14.1zM16 14.7a.6.6 0 1 1 0 1.2.6.6 0 0 1 0-1.2zm2 14.8 2.3-2 .6 3-2.8-1z" style="fill:var(--color1, #212121)"/><path fill="#2196f3" d="M15.4 3.2v1.3a.6.6 0 1 0 1.2 0V3.2a.6.6 0 0 0-1.2 0zM3.9 14.7a.6.6 0 0 0 0 1.2h1.3a.6.6 0 1 0 0-1.2H3.9zM28.1 16a.6.6 0 1 0 0-1.3h-1.3a.6.6 0 0 0 0 1.2h1.3z" style="fill:var(--color2, #2196f3)"/></symbol><symbol id="icon-diagram-img" viewBox="0 0 32 32"><path fill="#2196f3" d="M15 15h1v4.8h-1V15zM19.2 17.1h1v2.7h-1V17zM10.7 18.7h1v1h-1v-1zM7.5 18.2h1v1.6h-1v-1.6z" style="fill:var(--color2, #2196f3)"/><path fill="#212121" d="M1.6 28.3h25.6c.9 0 1.6-.7 1.6-1.6v-2.1c0-1-.7-1.6-1.6-1.6h-.5V9.7l3-2.9a1.6 1.6 0 1 0-.8-.8l-2.2 2.2V7c0-1-.8-1.6-1.6-1.6H3.7c-.9 0-1.6.7-1.6 1.6v16h-.5c-.9 0-1.6.7-1.6 1.6v2c0 1 .7 1.7 1.6 1.7zM30.4 4.8a.5.5 0 1 1 0 1.1.5.5 0 0 1 0-1zM3.2 7c0-.3.2-.6.5-.6h21.4c.2 0 .5.3.5.6v2.2l-1 1V8c0-.3-.3-.5-.6-.5H4.8c-.3 0-.5.2-.5.5v13.4c0 .3.2.5.5.5H24c.3 0 .5-.2.5-.5v-9.7l1-1V23H3.3V7zM8 13.9a1.6 1.6 0 1 0 1.1 2.7l1.9 1 .6-.1 4-4.5 3.8 3 .7-.1 3.4-3.2v8.1H5.3V8.6h18.2v2.6l-3.8 3.6-4-3a.5.5 0 0 0-.6.1l-4 4.5-1.5-.7v-.2c0-.9-.7-1.6-1.6-1.6zm.5 1.6a.5.5 0 1 1-1 0 .5.5 0 0 1 1 0zm3.2 8.5h5.4v.6c0 .3-.3.5-.6.5h-4.2a.5.5 0 0 1-.6-.5V24zm-10.6.6c0-.3.2-.6.5-.6h9v.6c0 .8.8 1.6 1.7 1.6h4.2c1 0 1.6-.8 1.6-1.6V24h9c.4 0 .6.3.6.6v2c0 .4-.2.6-.5.6H1.6a.5.5 0 0 1-.5-.5v-2.1z" style="fill:var(--color1, #212121)"/></symbol><symbol id="icon-Group-2" viewBox="0 0 72 32"><path fill="#f5f4fa" d="M1 0h70c.5 0 1 .5 1 1v30c0 .5-.5 1-1 1H1a1 1 0 0 1-1-1V1c0-.5.5-1 1-1z" style="fill:var(--color3, #f5f4fa)"/><path fill="#212121" d="M45 15.6A9 9 0 1 0 33.3 24h.2l.2-.2 2.2-7.2a1.1 1.1 0 1 0-.5-2.1l-3-3a.4.4 0 0 0-.5.5l3 3a1 1 0 0 0 .3 1.4l-2.1 6.8a8.2 8.2 0 1 1 6.1-.2l-.2-1.1a.4.4 0 0 0-.6-.2l-2.3 2a.4.4 0 0 0 .2.6l2.8 1a.4.4 0 0 0 .5-.5l-.2-1a8.9 8.9 0 0 0 5.4-8.3zm-9-.4a.4.4 0 1 1 0 .8.4.4 0 0 1 0-.8zm1.2 8.7 1.3-1.1.3 1.6-1.6-.5z" style="fill:var(--color1, #212121)"/><path fill="#2196f3" d="M35.6 8.5v.8a.4.4 0 1 0 .8 0v-.8a.4.4 0 0 0-.8 0zM29 15.2a.4.4 0 1 0 0 .8h.7a.4.4 0 1 0 0-.8h-.8zM43 16a.4.4 0 1 0 0-.8h-.7a.4.4 0 1 0 0 .8h.8z" style="fill:var(--color2, #2196f3)"/></symbol><symbol id="icon-logo1" viewBox="0 0 57 32"><path fill="#afb1b8" d="M20.3 3.7 24 7.3h-7v17.1h18.2V18l3.7 3.5V3.7H20.3zM35 17.5l-10.6-10H35v10zm-3.3 4.4H20V10.4h.9V21h11v.8zm-9 4.8-.4 1-.4-1h-.4L22 28v.7h.4V28l.6-1.2h-.4zm.6 2 .1-.5h.8l.1.4h.4l-.8-1.9h-.3l-.7 2h.4zm.5-1.6.3.8h-.6l.3-.8zm1.7.8v.2l.1.4.5.1.5-.1v.1h.4l-.2-.3.1-.6h-.3v.4l-.4-.5h.1l.2-.3v-.5l-.4-.1-.3.1-.2.4v.2l.2.2-.3.3zm.9.4h-.5l-.1-.2.1-.3.5.5zm-.4-.9V27H26.3V27.3h-.1l-.2.1zm3.1 1c.2 0 .2-.2.3-.4H29l-.1.3h-.6l-.1-.6v-.1l.1-.5.3-.1h.3l.1.3h.4c0-.2-.1-.3-.3-.4l-.5-.2-.4.1-.3.3v1.1l.3.3.4.1.5-.1zm2-.2v-1.1c0-.2-.2-.2-.3-.3l-.4-.1a1 1 0 0 0-.4.1c-.2 0-.2.2-.3.3l-.1.5v.6c0 .1.2.3.4.3l.4.1h.4l.3-.4zm-.4-1 .1.4v.6l-.4.2c-.2 0-.3 0-.4-.2v-1.1l.4-.1.3.1z" style="fill:var(--color4, #afb1b8)"/></symbol><symbol id="icon-logo2" viewBox="0 0 25 32"><path fill="#afb1b8" d="M10.5 1.8h-.7a14.2 14.2 0 0 0-.8 0c-2.3.1-4.5.7-6.5 1.7h-.3v13.7L3 17a23.3 23.3 0 0 1 6.7-1.2v1.8h-.7A20 20 0 0 0 .5 20V2.5A18.3 18.3 0 0 1 9.8 0h.2a18.1 18.1 0 0 1 3.2.4v1.8a14 14 0 0 0-2.2-.4h-.5zm3.1 1.8h1.2a19.4 19.4 0 0 0 9.3-2.3v17.1a18.3 18.3 0 0 1-12.7 2.1V3.3a14.3 14.3 0 0 0 2.2.3zm8.8.1-.7.3-1.7.5a21.1 21.1 0 0 1-6.3.6h-.5v14h.4a14.2 14.2 0 0 0 5.3-.5c1.1-.2 2.2-.6 3.2-1.1l.3-.1V3.7zM1.7 26a1 1 0 0 0-.7-.3 1 1 0 0 0-.4 0 1 1 0 0 0-.5.6V29.5l.2.3.4.2h.7a1 1 0 0 0 .5-.6V28.8h-.5v.4l-.2.1-.2.1a.3.3 0 0 1-.3-.1v-2.9h.1c.1 0 .1-.1.2 0 0-.1 0 0 .1 0h.2V27H2v-.3a1 1 0 0 0-.3-.7zM5.3 26A1 1 0 0 0 4 26a1 1 0 0 0-.2.3l-.1.4V29.4l.3.3.4.2a1 1 0 0 0 .7 0c.1 0 .2 0 .3-.2l.2-.3.1-.4V26.3a1 1 0 0 0-.3-.4zM5 29a.4.4 0 0 1-.1.3.4.4 0 0 1-.6 0 .4.4 0 0 1 0-.3v-2.3a.4.4 0 0 1 0-.3.4.4 0 0 1 .6 0 .4.4 0 0 1 .1.3V29zM10 30v-4.3h-.5L8.7 28l-.8-2.3h-.6V30H8v-2.6l.6 1.8h.3l.6-1.8V30h.6zM13.5 26l-.3-.2h-1.4V30h.6v-1.7h.3l.6-.1.3-.3.2-.4a3 3 0 0 0 0-1l-.3-.5zm-.3 1.3v.2l-.2.2h-.6v-1.4h.6l.2.2v.8zM16.4 25.7h-.5l-1 4.3h.6l.2-1h.8l.2 1h.6l-1-4.3zm-.6 2.8.3-1.6.3 1.6h-.6zM20.3 28.3l-1-2.6h-.5V30h.6v-2.6l1 2.6h.5v-4.3h-.6v2.6zM24 25.7l-.5 1.7-.5-1.7h-.7l.9 2.5V30h.6v-1.8l.8-2.5H24zM0 31.2h.3v.8h.2v-.8h.3V31H0v.2zM2.4 31l-.3 1h.2v-.2h.4l.1.2H3l-.3-1h-.3zm0 .6.2-.4v.4h-.2zM4.9 31.6H5v.1l-.2.1h-.2l-.1-.3c0-.2 0-.3.3-.3H5c.1 0 0 0 0 .1h.3c0-.2-.2-.3-.4-.3l-.4.1-.1.2c-.1 0 0 .1 0 .2l.1.4a.5.5 0 0 0 .4.1c.1 0 .3 0 .4-.2v-.3h-.4v.1zM7.3 31h-.2v1h.7v-.2h-.5V31zM9.4 31h-.2v1h.2v-1zM11.5 31.7 11 31h-.2v1h.2v-.7l.4.7h.2v-1h-.2v.7zM13.3 31.5h.5v-.1h-.5v-.2h.5V31h-.7v1h.8v-.2h-.6v-.3zM17.8 31.4h-.4V31h-.2v1h.2v-.4h.4v.4h.2v-1h-.2v.4zM19.6 31.5h.5v-.1h-.5v-.2h.6V31h-.7v1h.7v-.2h-.6v-.3zM22.2 31.5c.1 0 .2 0 .2-.2a.2.2 0 0 0 0-.2L22 31h-.4v1h.2v-.4h.2l.3.4h.2l-.1-.2-.2-.3zm-.2 0h-.2v-.3h.4v.1l-.2.1zM24 31.5h.6v-.1H24v-.2h.5V31h-.7v1h.7v-.2h-.5v-.3z" style="fill:var(--color4, #afb1b8)"/></symbol><symbol id="icon-logo3" viewBox="0 0 34 32"><path fill="#afb1b8" d="M5.6 31.3h.1l.2.2-.5.3-.7.1h-.6l-.4-.4-.4-.4a1.5 1.5 0 0 1 0-1.1l.4-.5.5-.3a2 2 0 0 1 1.2 0c.2 0 .3.2.5.3l-.2.1H5.3a1.3 1.3 0 0 0-.6-.2l-.4.1a1 1 0 0 0-.6.6l-.1.4v.5l.3.3.3.2H5a1 1 0 0 0 .6-.2zM10.4 30.5v.6l-.4.4-.5.3a2 2 0 0 1-1.2 0c-.2 0-.4-.2-.5-.3-.2-.1-.3-.3-.3-.4-.2-.4-.2-.8 0-1.2l.3-.4.5-.3a2 2 0 0 1 1.2 0l.5.3a1.3 1.3 0 0 1 .4 1zm-.4 0v-.4a1 1 0 0 0-.6-.6h-1a1 1 0 0 0-.3.2l-.2.4v.9a1 1 0 0 0 .5.5h1l.3-.2.2-.3.1-.5zM13.7 31h.1v-.1l1.1-1.7h.5v2.7H15v-2.2l-1 1.7h-.4l-1.1-1.7V32H12v-2.7h.4l1.2 1.7zM17.7 30.9v1h-.4v-2.7h1.4l.4.2c.1 0 .2.1.2.3v.3a.8.8 0 0 1-.2.6 1 1 0 0 1-.4.2h-1zm0-.3h.8l.3-.2.1-.2v-.4l-.1-.2a.9.9 0 0 0-.6-.2h-.5v1.2zM23.3 31.9h-.4v-.1l-.4-.7h-1.4l-.3.7a.2.2 0 0 1-.1 0h-.3l1.2-2.6h.4l1.3 2.7zm-2-1h1.1l-.5-1.1v-.3l-.1.1v.2l-.6 1zM25 29.2h.2l1.8 2V29h.3V32H27l-1.8-2.1V32h-.4v-2.7h.2zM30.4 30.8v1H30v-1l-1.2-1.6h.5l.8 1.1v.1l.1.1.1-.2.7-1v-.1H31.7l-1.2 1.6zM13.5 24.6h.6c2.8-1 5.1-2.8 6.8-5.1s2.5-4.9 2.4-7.5l-3-2.7c.5 2.8.2 5.7-1 8.4s-3.1 5.1-5.8 6.9z" style="fill:var(--color4, #afb1b8)"/><path fill="#afb1b8" d="M12.4 24.5c3-1.8 5-4.2 6.3-7s1.4-6 .5-8.9l-4.4-3.8a16.4 16.4 0 0 1-2.4 19.7zM27.3 15.1c-.7 3-2.5 5.6-5.1 7.5l-2.5 1.6c2.1-.6 4-1.5 5.7-2.8s3-3 3.7-4.7L27.3 15z" style="fill:var(--color4, #afb1b8)"/><path fill="#afb1b8" d="m26.6 14.7-2.5-2.2c0 2.5-.9 5-2.4 7s-3.7 4-6.2 5.2l1.7-.1c2.4-.9 4.5-2.2 6.1-4s2.8-3.7 3.3-6zM12.8 3.2 9.8.5C7 1.5 4.6 3 3 5.1S.5 9.7.5 12.1c0 2.9 1.1 5.6 3 7.8s4.8 3.7 8 4.4c2.7-3 4.4-6.6 4.6-10.4s-1-7.5-3.3-10.7zM33.6 14.3c0-3.3-1.5-6.5-4.2-8.8a15.8 15.8 0 0 0-15.3-2.9l18.6 16.1c.6-1.4 1-2.9 1-4.4z" style="fill:var(--color4, #afb1b8)"/></symbol><symbol id="icon-logo4" viewBox="0 0 57 32"><path fill="#2196f3" d="M12.9 11.3c-1.3 0-2.3.9-2.3 2 0 1.2 1 2 2.3 2 1.3 0 2.3-.8 2.3-2 0-1.1-1-2-2.3-2zM30 10.6c0-1.6-.7-3.1-2-4.2s-3-1.8-4.7-1.8c-1.8 0-3.5.7-4.8 1.8s-2 2.6-2 4.2v8.7S30 18 30 10.6zM5.9 22.2c0 1 .5 2.1 1.3 2.9s2 1.2 3.3 1.2c1.3 0 2.4-.4 3.3-1.2s1.4-1.8 1.4-3v-6s-9.3 1-9.3 6zm4.6 1-.6-.1a1 1 0 0 1-.6-1.2c0-.2.2-.4.4-.5.1-.2.4-.3.6-.3h.7l.5.5c.1.2.3.3.3.6l-.1.4a1 1 0 0 1-.3.3l-.4.3h-.5zM20 22.6h-1v1h-.4v-2.3H20v.4h-1v.6h.9v.3zm2.2-.1-.1.6-.4.4a1 1 0 0 1-.5.1l-.5-.1c-.2-.1-.2-.2-.3-.4l-.1-.6v-.7a.9.9 0 0 1 1-.5l.4.1.4.4.1.6zm-.5-.1v-.6c0-.2-.3-.1-.5-.1l-.3.1-.2.6c0 .3 0 .5.2.6l.3.2c.2 0 .3 0 .4-.2l.1-.5v-.1zm2 .6v-.2l-.4-.2-.4-.1c-.2-.2-.4-.4-.4-.6l.1-.3.3-.2.5-.1h.4l.3.3.1.4h-.5v-.3H23l-.1.2.1.2.3.1.6.3.2.5c0 .2 0 .3-.2.4a1 1 0 0 1-.6.2h-.5c-.1-.2-.3-.2-.3-.4l-.1-.3h.4c0 .2.2.3.5.3h.2l.1-.2zm2.5-1.3h-.7v1.9h-.4v-2h-.7v-.3h1.8v.4zm1.7.9h-1v.6H28v.4h-1.5v-2.3H28v.4h-1v.5h.9v.4zm1.2.1h-.3v.9h-.5v-2.3h.8c.3 0 .5 0 .7.2s.2.3.2.5l-.1.4-.3.2.5 1h-.5l-.5-.9zm-.3-.3h.3l.3-.1.1-.3v-.2l-.4-.1h-.3v.7zm2.8.4v.8h-.5v-2.3h1l.4.1.3.3v.4l-.1.5a1 1 0 0 1-.7.2h-.4zm0-.4h.7l.1-.3v-.3l-.4-.1h-.4v.7zm3 .2h-1v.6h1.1v.4h-1.5v-2.3h1.5v.4h-1v.5h.9v.4zm2.1-1h-.6v2h-.5v-2h-.7v-.3h1.8v.4zm1.7 1h-1v.6h1.1v.4H37v-2.3h1.5v.4h-1v.5h.9v.4zm1.3.1h-.4v.9h-.5v-2.3h.9c.2 0 .4 0 .6.2s.2.3.2.5l-.1.4-.3.2.5 1H40l-.4-.9zm-.4-.3h.4l.2-.1.1-.3v-.2l-.3-.1h-.4v.7zm2.7.6v-.2l-.4-.2-.4-.1c-.2-.2-.4-.4-.4-.6l.1-.3.3-.2.5-.1h.4l.3.3.1.4H42v-.3h-.6l-.1.2.1.2.3.1.6.3.2.5c0 .2 0 .3-.2.4a1 1 0 0 1-.6.2h-.5a.7.7 0 0 1-.4-.7h.4c0 .2.2.3.5.3h.2l.1-.2z" style="fill:var(--color2, #2196f3)"/></symbol><symbol id="icon-logo5" viewBox="0 0 57 32"><path fill="#afb1b8" d="m14.3 23.9.2.5-.1.3-.2.3c-.3.2-.6.3-1 .3h-1.5V22h1.5c.3 0 .6 0 .9.2l.2.3v.8l-.6.3c.3 0 .4.1.6.3zm-1.8-.5h.6l.4-.1.1-.2v-.5a.7.7 0 0 0-.5-.1h-.6v.9zm1 1.2.2-.1V24l-.1-.1a.7.7 0 0 0-.5-.2h-.6v1h.6c.2 0 .4 0 .5-.2zM17.4 25.3l-.9-1.3h-.3v1.3h-.7V22h1.4c.3 0 .6 0 1 .3l.2.6c0 .2 0 .5-.2.7l-.6.4.9 1.3h-.8zm-1.2-1.8h.6c.4 0 .6-.1.6-.5a.5.5 0 0 0-.1-.3.7.7 0 0 0-.5-.2h-.6v1zM21.3 24.6H20l-.3.7H19l1.3-3.3h.8l1.4 3.3h-.8l-.3-.7zm-.2-.5-.5-1.4-.5 1.4h1zM26.3 25.3h-.7L24 23v2.3h-.8V22h.8l1.6 2.2V22h.7v3.3zM30.4 24.5l-.6.6-1 .2h-1.3V22h1.3c.3 0 .7 0 1 .2.2.1.5.3.6.6.2.2.2.5.2.8l-.2.9zm-.8 0 .3-.9c0-.3-.1-.5-.3-.8-.3-.2-.6-.3-1-.2h-.4v2h.5c.3.1.6 0 .9-.2zM21.8 3.6s9.3 3.2 9 7.9v7.8s-9.2-3.2-9-7.8V3.6zM39.2 17.5c1.7-1.1 3.8-1.8 5.9-2V13a12 12 0 0 0-6 4.5z" style="fill:var(--color4, #afb1b8)"/><path fill="#afb1b8" d="M38.1 18.2c1.5-2.6 4-4.7 7-5.7v-7S31.8 10 32 16.5v11.2l1.5-.5v-1.1c.4-3.1 2-6 4.5-8z" style="fill:var(--color4, #afb1b8)"/><path fill="#afb1b8" d="M36.9 22.4c0-.8.2-1.5.4-2.3a10.4 10.4 0 0 0-2.8 6.8l2.6-1.2c-.3-1.1-.3-2.2-.2-3.3zM37.4 22.4c-.1 1 0 2 .2 3 3.6-2 7.6-5 7.5-8.8v-.3c-2.6.3-5 1.3-6.9 3-.4 1-.7 2-.8 3.1z" style="fill:var(--color4, #afb1b8)"/></symbol><symbol id="icon-logo6" viewBox="0 0 57 32"><path fill="#afb1b8" d="M28.5 14.6c-.2-.3-.4-.7-.3-1V12c0-.5 0-.8.3-1s.6-.4 1-.4c.6 0 1 0 1.1.3.3.3.4.6.3 1v.3h-.8v-.8l-.2-.2h-.6l-.2.3v2.2l.1.5.2.2h.5l.1-.3v-.8h1v.4c0 .3-.1.7-.4 1-.2.2-.5.3-1 .3s-.9-.1-1.1-.4zM32.1 14.6c-.2-.2-.3-.6-.3-1V12c0-.5.1-.8.3-1s.6-.4 1.1-.4c.6 0 1 .1 1.1.3.3.3.4.6.4 1v1.7c0 .4-.1.8-.4 1s-.5.4-1 .4c-.6 0-1-.1-1.2-.4zm1.6-.4v-2.9l-.2-.1H33l-.2.1v3h.2l.2.1h.3l.2-.1zM35.7 10.6h1l.7 3 .7-3h1V15h-.7v-3l-.7 3H37l-.7-3v3h-.8l.1-4.3zM40.2 10.6h1.4c.9 0 1.3.4 1.3 1.2 0 .8-.4 1.2-1.3 1.2H41v2h-1v-4.4zm1.2 1.9a.7.7 0 0 0 .5-.2l.2-.5v-.3l-.2-.2a1 1 0 0 0-.5-.1h-.3v1.3h.3zM44.2 10.6h1l1 4.3h-.9l-.2-1h-.8l-.2 1h-.9l1-4.3zm.8 2.8-.3-1.8-.3 1.8h.7zM47 10.6h.6l1.2 2.5v-2.5h.8V15H49l-1.2-2.5v2.5H47v-4.3zM51.4 13.3l-1-2.7h.8l.6 1.7.6-1.7h.8l-1 2.7v1.6h-.8v-1.6zM29.9 16.8v.2h-.7v1.8h-.4V17h-.7v-.2h1.8zM32.2 18.8H32l-.3-.5h-1l-.2.4v.1H30l.9-2h.3l1 2zm-1.5-.7h.9l-.4-.8V17H31v.2l-.4.8zM33.8 18.6h.1a1 1 0 0 0 .3 0l.1-.1V18H34v-.2h.6v.8a1.4 1.4 0 0 1-.6.2h-.7l-.4-.3a1 1 0 0 1-.2-.3l-.1-.4v-.4l.3-.3.4-.2a1.6 1.6 0 0 1 .7 0 1.2 1.2 0 0 1 .6.2h-.1v.1h-.2l-.1-.1a1.2 1.2 0 0 0-.8 0c-.1 0-.2 0-.3.2l-.1.2v.7l.1.2.3.2h.4zM36.7 18.6h1v.2h-1.3v-2h.3v1.8zM38.7 18.8h-.3v-2h.3v2zM39.8 16.8l1.4 1.6v-1.6h.3v2H41.2l-1.3-1.5v1.5h-.3v-2h.2zM43.8 16.8v.2h-1.1v.7h.8v.2h-.8v.7h1v.2h-1.4v-2h1.5zM11.3 4.6 25 8v11.8l-13.7-3.4V4.6zm-.9-1V17l15.5 3.8V7.4L10.4 3.6z" style="fill:var(--color4, #afb1b8)"/><path fill="#afb1b8" d="M18.7 27 3.2 23.2V9.8l15.5 3.8V27z" style="fill:var(--color4, #afb1b8)"/><path fill="#afb1b8" d="m10.7 4.5 13.5 3.3-5.7 5L4.9 9.4l5.8-5zm-.3-.9L3.2 9.8l15.5 3.8L26 7.4 10.4 3.6zM19.6 26.3l6.3-5.5-6.3-1.5v7z" style="fill:var(--color4, #afb1b8)"/></symbol><symbol id="icon-envelop" viewBox="0 0 32 32"><path d="M29 4H3a3 3 0 0 0-3 3v20a3 3 0 0 0 3 3h26a3 3 0 0 0 3-3V7a3 3 0 0 0-3-3zM12.5 17.2 4 23.8V8l8.5 9.1zM5.5 8h21L16 15.9 5.5 8zm7.3 9.6L16 21l3.2-3.4 6.6 8.4H6.2l6.6-8.4zm6.7-.4 8.5-9v15.6l-8.5-6.6z"/></symbol><symbol id="icon-mobile" viewBox="0 0 32 32"><path d="M23 0H9a3 3 0 0 0-3 3v26a3 3 0 0 0 3 3h14a3 3 0 0 0 3-3V3a3 3 0 0 0-3-3zM12 1.5h8v1h-8v-1zM16 30a2 2 0 1 1 0-4 2 2 0 0 1 0 4zm8-6H8V4h16v20z"/></symbol><symbol id="icon-facebook" viewBox="0 0 32 32"><path d="M19 6h5V0h-5a7 7 0 0 0-7 7v3H8v6h4v16h6V16h5l1-6h-6V7c0-.5.5-1 1-1z"/></symbol><symbol id="icon-instagram" viewBox="0 0 32 32"><path d="M16 2.9h6.5c1.5.1 2.4.4 3 .6a5 5 0 0 1 1.8 1.2c.5.6.9 1.1 1.2 1.9.2.5.4 1.4.5 3a112.7 112.7 0 0 1-.5 15.8 5 5 0 0 1-1.2 1.9c-.6.5-1.1.9-1.9 1.2-.5.2-1.4.4-3 .5a112.7 112.7 0 0 1-15.8-.5 5 5 0 0 1-1.9-1.2 5 5 0 0 1-1.2-1.9c-.2-.5-.4-1.4-.5-3a112.7 112.7 0 0 1 .5-15.8 5 5 0 0 1 1.2-1.9c.6-.5 1.1-.9 1.9-1.2C7 3.3 8 3 9.6 3l6.4-.1zM16 0H9.4C7.7.3 6.5.5 5.5.9s-2 1-2.8 1.9c-1 .9-1.5 1.8-1.9 2.8-.4 1-.6 2.2-.7 3.9a117.6 117.6 0 0 0 .7 17c.5 1.1 1 2 1.9 3 .9.8 1.8 1.4 2.8 1.8 1 .4 2.2.6 3.9.7a117.2 117.2 0 0 0 17-.7c1.1-.4 2-1 2.9-1.9s1.4-1.8 1.8-2.8c.4-1 .7-2.2.8-3.9a117.2 117.2 0 0 0-.8-17A7.8 7.8 0 0 0 26.4.8c-1-.5-2.1-.7-3.8-.8L16 0z"/><path d="M16 7.8a8.2 8.2 0 1 0 0 16.4 8.2 8.2 0 0 0 0-16.4zm0 13.5a5.3 5.3 0 1 1 0-10.6 5.3 5.3 0 0 1 0 10.6zM26.5 7.5a2 2 0 1 1-3.9 0 2 2 0 0 1 3.9 0z"/></symbol><symbol id="icon-twitter" viewBox="0 0 32 32"><path d="M32 7a13 13 0 0 1-3.8 1.1 6.6 6.6 0 0 0 3-3.6c-1.4.7-2.8 1.3-4.3 1.6a6.6 6.6 0 0 0-11.1 6A18.6 18.6 0 0 1 2.2 5a6.6 6.6 0 0 0 2 8.9c-1 0-2-.4-3-.9v.1c0 3.2 2.4 5.9 5.4 6.5a6.6 6.6 0 0 1-3 0 6.6 6.6 0 0 0 6.1 4.6A13.2 13.2 0 0 1 0 27.1a18.6 18.6 0 0 0 28.7-16.6C30 9.5 31.1 8.4 32 7z"/></symbol><symbol id="icon-linkedin2" viewBox="0 0 32 32"><path d="M12 12h5.5v2.8h.1a6.1 6.1 0 0 1 5.5-2.8c5.8 0 6.9 3.6 6.9 8.4V30h-5.8v-8.5c0-2 0-4.7-3-4.7s-3.4 2.2-3.4 4.5V30H12V12zM2 12h6v18H2V12zM8 7a3 3 0 1 1-6 0 3 3 0 0 1 6 0z"/></symbol></defs></svg>